#!OML:ASF E:\motion texture\Top Level 1\Subject 1\Session 1\male.ASF
:FULLY-SPECIFIED
:DEGREES
270
root -4.91683 17.7318 4.25309 122.005 -81.6647 -115.322
lowerback -3.0437 2.22567 5.55984
upperback -2.51025 2.76352 2.70911
thorax -0.749381 1.28832 -0.256178
lowerneck -8.71524 -9.63815 -9.90938
upperneck 11.048 -13.2913 10.8913
head 6.17457 -6.25258 3.85069
rclavicle 4.84596e-015 2.70347e-014
rhumerus -17.6262 -6.6327 -77.5586
rradius 67.1776
rwrist -17.4924
rhand -1.18037 -22.7886
rfingers 7.12502
rthumb 24.4593 -51.2469
lclavicle 4.84596e-015 2.70347e-014
lhumerus -38.4278 1.5949 82.0494
lradius 41.3486
lwrist -13.3476
lhand 4.79618 14.6487
lfingers 7.12502
lthumb 30.1756 42.2041
rfemur 2.09613 4.84643 31.8503
rtibia 29.3587
rfoot -13.8742 -5.47852
rtoes -10.0311
lfemur -28.4156 -3.98667 -8.25794
ltibia 18.6796
lfoot 2.39855 6.21933
ltoes -5.34611
271
root -5.08083 17.7503 4.27514 122.66 -81.7076 -116.153
lowerback -3.06633 2.16422 5.51755
upperback -2.51362 2.68242 2.65215
thorax -0.742887 1.24877 -0.292891
lowerneck -8.63067 -9.72468 -9.93803
upperneck 11.2031 -13.4363 10.9
head 6.22696 -6.32546 3.84263
rclavicle 7.61361e-016 1.66979e-014
rhumerus -17.5467 -7.3629 -76.9238
rradius 67.7946
rwrist -18.2013
rhand -1.19699 -23.0357
rfingers 7.12502
rthumb 24.4434 -51.4962
lclavicle 7.61361e-016 1.66979e-014
lhumerus -38.3222 0.461136 82.0658
lradius 43.138
lwrist -12.7845
lhand 5.31774 14.5831
lfingers 7.12502
lthumb 30.673 42.0463
rfemur 1.61308 4.49926 31.4252
rtibia 31.2209
rfoot -12.6734 -4.98239
rtoes -10.3419
lfemur -27.7845 -3.95844 -8.62626
ltibia 18.9731
lfoot 2.45848 5.85805
ltoes -3.50907
272
root -5.24261 17.769 4.29738 123.175 -81.7608 -116.846
lowerback -3.06596 2.08428 5.46623
upperback -2.52571 2.57879 2.61297
thorax -0.760513 1.19739 -0.308075
lowerneck -8.57464 -9.78164 -9.94179
upperneck 11.3969 -13.534 10.8373
head 6.2844 -6.37713 3.81217
rclavicle 1.75257e-015 -1.3418e-014
rhumerus -17.432 -8.12928 -76.2388
rradius 68.3298
rwrist -18.9208
rhand -1.222 -23.44
rfingers 7.12502
rthumb 24.4194 -51.9038
lclavicle 1.75257e-015 -1.3418e-014
lhumerus -38.2366 -0.542915 81.9824
lradius 44.9498
lwrist -12.2278
lhand 5.6102 14.5955
lfingers 7.12502
lthumb 30.9518 42.0062
rfemur 1.00637 4.12902 30.9768
rtibia 33.2017
rfoot -11.1958 -4.49476
rtoes -10.2391
lfemur -27.1104 -3.95598 -8.99397
ltibia 19.2046
lfoot 2.38823 5.53809
ltoes -1.85501
273
root -5.40228 17.788 4.31992 123.776 -81.8537 -117.629
lowerback -3.04897 1.9888 5.36606
upperback -2.54029 2.45709 2.58203
thorax -0.793019 1.13742 -0.288832
lowerneck -8.55084 -9.80699 -9.93854
upperneck 11.6269 -13.5807 10.7207
head 6.34881 -6.40549 3.76776
rclavicle 9.76064e-015 1.49089e-014
rhumerus -17.2787 -8.93347 -75.5081
rradius 68.8001
rwrist -19.6483
rhand -1.26024 -23.9672
rfingers 7.12502
rthumb 24.3827 -52.4359
lclavicle 9.76064e-015 1.49089e-014
lhumerus -38.1545 -1.40757 81.8054
lradius 46.7833
lwrist -11.684
lhand 5.7164 14.6978
lfingers 7.12502
lthumb 31.0531 42.0891
rfemur 0.288006 3.74085 30.4591
rtibia 35.2645
rfoot -9.40655 -4.0568
rtoes -9.71245
lfemur -26.382 -3.98376 -9.40665
ltibia 19.3444
lfoot 2.22539 5.27377
ltoes -0.477727
274
root -5.56027 17.8071 4.343 124.593 -82.0117 -118.632
lowerback -3.02196 1.88324 5.19121
upperback -2.55436 2.32487 2.54641
thorax -0.833312 1.07337 -0.233454
lowerneck -8.55523 -9.80506 -9.92721
upperneck 11.8855 -13.5827 10.5552
head 6.41824 -6.41361 3.71041
rclavicle -2.17157e-014 7.15625e-015
rhumerus -17.0955 -9.77574 -74.7325
rradius 69.2204
rwrist -20.4119
rhand -1.37393 -24.5652
rfingers 7.12502
rthumb 24.2738 -53.0485
lclavicle -2.17157e-014 7.15625e-015
lhumerus -38.0626 -2.14102 81.5376
lradius 48.6392
lwrist -11.1387
lhand 5.70481 14.8523
lfingers 7.12502
lthumb 31.042 42.2458
rfemur -0.522302 3.331 29.8406
rtibia 37.3643
rfoot -7.26062 -3.70853
rtoes -8.89211
lfemur -25.5953 -4.04647 -9.90304
ltibia 19.3816
lfoot 1.98607 5.06308
ltoes 0.612654
275
root -5.71549 17.826 4.3663 125.947 -82.2281 -120.163
lowerback -2.98632 1.7766 4.92231
upperback -2.57472 2.19453 2.50079
thorax -0.88707 1.01155 -0.13618
lowerneck -8.58835 -9.77704 -9.90651
upperneck 12.1677 -13.5416 10.3452
head 6.49175 -6.40219 3.64111
rclavicle -1.27253e-014 -3.35946e-014
rhumerus -16.8838 -10.6359 -73.9222
rradius 69.6057
rwrist -21.2344
rhand -1.57681 -25.2188
rfingers 7.12502
rthumb 24.0792 -53.728
lclavicle -1.27253e-014 -3.35946e-014
lhumerus -37.9528 -2.72898 81.1716
lradius 50.5078
lwrist -10.5831
lhand 5.60356 15.0207
lfingers 7.12502
lthumb 30.9455 42.4326
rfemur -1.43904 2.93292 29.112
rtibia 39.4923
rfoot -4.77305 -3.446
rtoes -7.73896
lfemur -24.779 -4.10284 -10.4965
ltibia 19.3336
lfoot 1.68262 4.89472
ltoes 1.32871
